<?xml version="1.0" encoding="UTF-8" standalone="no"?>
<svg
   xmlns:dc="http://purl.org/dc/elements/1.1/"
   xmlns:cc="http://creativecommons.org/ns#"
   xmlns:rdf="http://www.w3.org/1999/02/22-rdf-syntax-ns#"
   xmlns:svg="http://www.w3.org/2000/svg"
   xmlns="http://www.w3.org/2000/svg"
   xmlns:sodipodi="http://sodipodi.sourceforge.net/DTD/sodipodi-0.dtd"
   xmlns:inkscape="http://www.inkscape.org/namespaces/inkscape"
   viewBox="0 0 16 16"
   id="svg2"
   version="1.1"
   inkscape:version="0.91 r13725"
   width="100%"
   height="100%"
   sodipodi:docname="moduleIcon.svg">
  <metadata
     id="metadata22">
    <rdf:RDF>
      <cc:Work
         rdf:about="">
        <dc:format>image/svg+xml</dc:format>
        <dc:type
           rdf:resource="http://purl.org/dc/dcmitype/StillImage" />
      </cc:Work>
    </rdf:RDF>
  </metadata>
  <defs
     id="defs20" />
  <sodipodi:namedview
     pagecolor="#ffffff"
     bordercolor="#666666"
     borderopacity="1"
     objecttolerance="10"
     gridtolerance="10"
     guidetolerance="10"
     inkscape:pageopacity="0"
     inkscape:pageshadow="2"
     inkscape:window-width="1855"
     inkscape:window-height="1056"
     id="namedview18"
     showgrid="false"
     inkscape:zoom="20.307223"
     inkscape:cx="-6.457011"
     inkscape:cy="2.5472312"
     inkscape:window-x="65"
     inkscape:window-y="24"
     inkscape:window-maximized="1"
     inkscape:current-layer="svg2" />
  <rect
     style="fill:#ffffff;fill-opacity:1;fill-rule:evenodd;stroke:none;stroke-width:1px;stroke-linecap:butt;stroke-linejoin:miter;stroke-opacity:1"
     id="rect3417-3"
     width="16"
     height="16"
     x="0"
     y="-9.0205621e-16" />
  <path
     id="path4283"
     style="fill:#2f3435"
     d="m 15.393599,13.394792 -0.496408,-0.368533 c 0.0013,-0.0075 0.0022,-0.0151 0.0034,-0.02266 5.19e-4,-0.0031 9.14e-4,-0.0062 0.0014,-0.0093 0.0049,-0.03214 0.0089,-0.06423 0.01224,-0.09636 1.9e-4,-0.0018 3.33e-4,-0.0033 5.2e-4,-0.0051 0.0034,-0.03351 0.0059,-0.06708 0.0076,-0.100642 1.44e-4,-0.0014 1.91e-4,-0.003 2.39e-4,-0.0044 0.0016,-0.03323 0.0026,-0.06646 0.0026,-0.09969 0,-0.0018 9.6e-5,-0.0034 9.6e-5,-0.0051 0,-0.0018 -9.6e-5,-0.0038 -9.6e-5,-0.0056 0,-0.0072 1.43e-4,-0.01456 4.8e-5,-0.0218 -4.8e-5,-0.0014 0,-0.0026 0,-0.0041 -2.37e-4,-0.01447 -9.13e-4,-0.02885 -0.0014,-0.04332 -3.94e-4,-0.0089 -7.56e-4,-0.01781 -0.0013,-0.02671 -9.9e-4,-0.01771 -0.0016,-0.03543 -0.003,-0.05308 -1.9e-4,-0.0018 -4.29e-4,-0.0037 -5.19e-4,-0.0055 -4.29e-4,-0.0052 -9.9e-4,-0.01042 -0.0013,-0.01556 -7.55e-4,-0.0094 -0.002,-0.01875 -0.0027,-0.02815 -2.39e-4,-0.0021 -4.29e-4,-0.0041 -6.18e-4,-0.006 -1.43e-4,-0.0011 -2.39e-4,-0.0024 -3.93e-4,-0.0035 -5.19e-4,-0.0047 -9.14e-4,-0.0095 -0.0014,-0.01419 -6.73e-4,-0.0059 -0.0011,-0.01171 -0.0018,-0.01752 -3.92e-4,-0.003 -9.13e-4,-0.006 -0.0011,-0.009 -4.29e-4,-0.0032 -0.0011,-0.0067 -0.0014,-0.01 -0.003,-0.02413 -0.0064,-0.04818 -0.01029,-0.07208 -3.32e-4,-0.0021 -4.76e-4,-0.0042 -7.56e-4,-0.0063 l 0.497007,-0.369008 c 0.117972,-0.06808 0.158345,-0.218853 0.09027,-0.336778 l -0.411007,-0.71155 c -0.06808,-0.117925 -0.218903,-0.158296 -0.336778,-0.09022 l -0.568249,0.245991 c -0.0031,-0.0026 -0.0065,-0.0049 -0.0097,-0.0073 -0.0014,-0.0012 -0.0029,-0.0024 -0.0044,-0.0036 -0.0073,-0.006 -0.01491,-0.01166 -0.02238,-0.01752 -0.0081,-0.0065 -0.01624,-0.01276 -0.02442,-0.01895 -0.0067,-0.0051 -0.01348,-0.01004 -0.02018,-0.01505 -0.0031,-0.0024 -0.0063,-0.0047 -0.0095,-0.007 -0.0055,-0.0041 -0.0109,-0.0083 -0.01647,-0.01229 -0.003,-0.0022 -0.006,-0.0044 -0.0092,-0.0067 -0.0077,-0.0055 -0.01552,-0.01076 -0.02333,-0.01614 -0.002,-0.0014 -0.0039,-0.0028 -0.0059,-0.0041 -0.0033,-0.0023 -0.0068,-0.0046 -0.01019,-0.0069 -0.01138,-0.0077 -0.0228,-0.01538 -0.03432,-0.0229 -0.0013,-7.99e-4 -0.0026,-0.0016 -0.0039,-0.0025 -0.01885,-0.0122 -0.0378,-0.02419 -0.05704,-0.03576 -0.0049,-0.003 -0.0098,-0.0057 -0.01476,-0.0086 -0.04132,-0.02442 -0.08341,-0.04756 -0.126446,-0.06908 -9.14e-4,-4.29e-4 -0.0016,-8e-4 -0.0026,-0.0012 -0.05574,-0.02785 -0.112963,-0.05317 -0.171473,-0.07608 -0.0016,-6.17e-4 -0.0032,-0.0013 -0.0049,-0.0019 -0.0075,-0.0029 -0.0149,-0.0061 -0.02238,-0.0089 l -0.07103,-0.615187 c 4.6e-5,-0.1361589 -0.110308,-0.2465617 -0.246514,-0.2465617 l -0.821616,0 c -0.136159,0 -0.246514,0.1103556 -0.246514,0.2465617 l -0.07106,0.615192 c -0.0033,0.0013 -0.0065,0.0026 -0.0099,0.0039 -0.0039,0.0014 -0.0077,0.003 -0.01161,0.0046 -0.0227,0.0088 -0.04519,0.0179 -0.06746,0.02747 -0.004,0.0017 -0.008,0.0035 -0.01195,0.0053 -0.02018,0.0088 -0.04027,0.01786 -0.06018,0.02723 -0.0021,0.001 -0.0043,0.0021 -0.0063,0.003 -0.0026,0.0013 -0.0053,0.0024 -0.0078,0.0037 -0.0072,0.0035 -0.01452,0.0071 -0.02176,0.01075 -0.01671,0.0083 -0.03323,0.0169 -0.04965,0.02571 -0.0119,0.0063 -0.0239,0.01256 -0.03575,0.01909 -0.0075,0.0042 -0.01481,0.0087 -0.02224,0.0129 -5.67e-4,2.85e-4 -0.0011,6.68e-4 -0.0017,0.001 -0.0014,7.99e-4 -0.0029,0.0014 -0.0043,0.0022 -0.0024,0.0014 -0.0046,0.003 -0.007,0.0043 -0.0269,0.01561 -0.05342,0.03185 -0.0796,0.0487 -0.003,0.0019 -0.0059,0.0038 -0.0089,0.0057 -0.003,0.0019 -0.006,0.0039 -0.0091,0.0058 -9.13e-4,6.17e-4 -0.0018,0.0011 -0.0025,0.0017 -0.02238,0.01481 -0.04442,0.03009 -0.06627,0.04575 -0.003,0.0022 -0.0061,0.0044 -0.0092,0.0066 -0.02442,0.01771 -0.04851,0.03604 -0.07222,0.05484 -0.004,0.0033 -0.0082,0.0065 -0.01229,0.0098 -0.0052,0.0042 -0.01052,0.0082 -0.01566,0.01247 l -0.567487,-0.245651 c -0.117924,-0.06808 -0.268746,-0.02766 -0.336825,0.09026 l -0.410999,0.711547 c -0.06813,0.11802 -0.02766,0.268793 0.09022,0.336872 l 0.496502,0.368581 c -0.001,0.0059 -0.0017,0.01195 -0.0026,0.01791 -0.001,0.0068 -0.0021,0.01357 -0.003,0.02037 -0.0042,0.02828 -0.0078,0.05651 -0.01081,0.08474 -5.73e-4,0.0056 -0.0011,0.01108 -0.0017,0.0167 -0.0025,0.02528 -0.0045,0.05061 -0.0061,0.07589 -9.5e-5,0.0019 -1.91e-4,0.004 -2.86e-4,0.0059 -1.43e-4,0.0021 -1.91e-4,0.0043 -3.33e-4,0.0065 -3.33e-4,0.0056 -5.67e-4,0.01118 -8.76e-4,0.0168 -0.0014,0.0288 -0.0021,0.05765 -0.0022,0.08641 -4.8e-5,0.0041 -3.34e-4,0.008 -3.34e-4,0.012 0,0.0044 2.39e-4,0.0088 2.39e-4,0.01319 0,0.0032 -4.8e-5,0.0065 0,0.0096 0,0.0035 -9.6e-5,0.0069 0,0.01048 1.89e-4,0.01176 7.14e-4,0.02357 0.0011,0.03533 4.8e-4,0.01529 0.0013,0.03051 0.0021,0.0457 7.14e-4,0.01281 0.0013,0.02557 0.0022,0.03833 1.43e-4,0.0018 2.86e-4,0.0037 3.82e-4,0.0055 4.81e-4,0.0063 0.001,0.01265 0.0016,0.0189 6.68e-4,0.0081 0.0016,0.01623 0.0024,0.02433 0.0018,0.01833 0.0035,0.03661 0.0057,0.05474 0,2.38e-4 9.5e-5,5.19e-4 9.5e-5,7.55e-4 0.0034,0.02709 0.0072,0.05405 0.01162,0.08084 2.37e-4,0.0015 3.32e-4,0.0031 6.17e-4,0.0047 l -0.496367,0.368576 c -0.117973,0.06808 -0.158344,0.218853 -0.09022,0.33673 l 0.410857,0.711689 c 0.06808,0.117973 0.2189,0.158345 0.336777,0.09027 l 0.56739,-0.245467 c 0.0039,0.0032 0.008,0.0059 0.01195,0.0091 6.68e-4,6.17e-4 0.0014,0.0011 0.0021,0.0016 0,9.6e-5 9.5e-5,9.6e-5 9.5e-5,1.44e-4 0.0061,0.0049 0.01238,0.0097 0.01857,0.01462 0.0097,0.0077 0.01943,0.01533 0.02928,0.02281 0.0057,0.0044 0.01147,0.0086 0.01723,0.0129 0.0076,0.0056 0.0151,0.01133 0.02276,0.01689 9.13e-4,6.18e-4 0.0016,0.0012 0.0024,0.0018 0.0036,0.0026 0.0072,0.0053 0.01081,0.0078 0.0088,0.0063 0.01781,0.01233 0.02671,0.01842 7.55e-4,6.18e-4 0.0016,0.0011 0.0024,0.0016 0.0035,0.0024 0.007,0.0049 0.01052,0.0072 0.03118,0.02123 0.06289,0.04175 0.09531,0.06127 0.0056,0.0033 0.01133,0.0067 0.01699,0.0099 0.04061,0.02399 0.08203,0.04671 0.12435,0.06799 0.0014,7.55e-4 0.0029,0.0014 0.0043,0.0022 0.06408,0.0319 0.129921,0.06094 0.197526,0.08626 l 0.07103,0.614332 c 0,0.136111 0.110355,0.24656 0.246562,0.24656 l 0.821759,4.8e-5 c 0.136113,-5e-6 0.246562,-0.110313 0.246562,-0.246566 l 0.07108,-0.614379 c 0.0035,-0.0013 0.0068,-0.0027 0.01029,-0.004 0.0034,-0.0013 0.0069,-0.0027 0.01023,-0.0041 0.0229,-0.0089 0.04567,-0.01805 0.06818,-0.02766 0.0044,-0.0018 0.0088,-0.0039 0.01319,-0.0059 0.02009,-0.0088 0.04008,-0.01775 0.0598,-0.02708 0.0018,-9.9e-4 0.0038,-0.0018 0.0056,-0.0027 1.43e-4,-4.8e-5 3.34e-4,-1.43e-4 5.02e-4,-2.39e-4 0.0021,-0.0011 0.0043,-0.002 0.0064,-0.003 0.0077,-0.0038 0.01552,-0.0076 0.02318,-0.01143 0.01643,-0.0081 0.0326,-0.01661 0.0487,-0.02519 0.01229,-0.0065 0.02457,-0.01285 0.0367,-0.01957 0.0062,-0.0034 0.01229,-0.0072 0.01842,-0.01071 0.0021,-0.0011 0.0041,-0.0024 0.0062,-0.0036 0.0011,-5.62e-4 0.0022,-0.0011 0.0031,-0.0016 0.0018,-0.0011 0.0035,-0.0022 0.0053,-0.0031 0.02799,-0.01624 0.05565,-0.03314 0.08289,-0.0507 0.002,-0.0013 0.004,-0.0026 0.0059,-0.0039 0.0043,-0.0027 0.0085,-0.0054 0.01271,-0.0082 0.02299,-0.01514 0.04575,-0.03089 0.06822,-0.04704 0.0022,-0.0016 0.0044,-0.0031 0.0065,-0.0047 0.02528,-0.01833 0.05026,-0.03722 0.07474,-0.05675 0.0033,-0.0026 0.0067,-0.0053 0.0099,-0.0078 0.0055,-0.0046 0.01124,-0.0089 0.01675,-0.01338 l 0.567485,0.245609 c 0.117973,0.06813 0.268747,0.02766 0.336778,-0.09027 l 0.410904,-0.711641 c 0.06799,-0.117925 0.02761,-0.268699 -0.09031,-0.336779 z m -2.546449,0.145917 c -0.473603,0 -0.857559,-0.38391 -0.857559,-0.857559 0,-0.473651 0.383956,-0.857608 0.857559,-0.857608 0.473604,0 0.857609,0.384005 0.857609,0.857608 0,0.473602 -0.384005,0.857559 -0.857609,0.857559 z"
     inkscape:connector-curvature="0" />
  <path
     id="path4138"
     d="m 14.053663,1.4139862 c 0.07138,0 0.209294,0.018051 0.327187,0.1355955 0.118008,0.1183543 0.135595,0.2558027 0.135595,0.3271868 0,0.07138 -0.01758,0.2088301 -0.135595,0.3271867 l -0.518778,0.518778 -0.27119,0.2711898 0,0.3832996 0,1.7390181 -0.925565,0 -0.925564,0 0,0.9255634 0,0.9255634 -0.925563,0 -0.9255633,0 0,0.9255645 0,0.9255634 -0.093135,0 -1.1316171,0 0.2245649,1.1090561 c 0.049291,0.2449275 0.07463,0.4943665 0.07463,0.7420705 0,2.041794 -1.6608089,3.702255 -3.7022546,3.702255 -2.0414458,0 -3.7022547,-1.660461 -3.7022547,-3.702255 0,-2.0417932 1.6608089,-3.7022545 3.7022547,-3.7022545 0.5735027,0 1.1443437,0.1464704 1.6965577,0.4347844 L 7.5597989,7.7167279 8.0401665,7.2358968 13.726366,1.5496976 C 13.844374,1.4320362 13.982285,1.4139862 14.053669,1.4139862 M 5.2608147,12.520749 c 1.0208966,0 1.8511267,-0.830692 1.8511267,-1.851127 0,-1.020433 -0.8302301,-1.8511266 -1.8511267,-1.8511266 -1.0208967,0 -1.8511268,0.8306936 -1.8511268,1.8511266 0,1.020435 0.8302301,1.851127 1.8511268,1.851127 M 14.053669,0.48842276 c -0.355185,0 -0.710485,0.1355955 -0.98156,0.40678531 L 7.3857929,6.5814086 C 6.7468065,6.2478579 6.0313467,6.0418041 5.2608147,6.0418041 c -2.5557128,0 -4.62781813,2.071643 -4.62781813,4.6278179 0,2.556176 2.07210533,4.627819 4.62781813,4.627819 2.5557127,0 4.627818,-2.071643 4.627818,-4.627819 0,-0.317236 -0.032507,-0.626374 -0.093135,-0.9255632 l 1.0186984,0 0,-1.8511268 1.851127,0 0,-1.8511279 1.851128,0 0,-2.6645815 0.518778,-0.518778 c 0.542381,-0.5423807 0.542381,-1.4208557 0,-1.96323653 -0.271074,-0.27118981 -0.626375,-0.40678531 -0.98156,-0.40678531 l 0,0 z M 5.2608147,11.595186 c -0.5111431,0 -0.9255634,-0.413958 -0.9255634,-0.925564 0,-0.511605 0.4144203,-0.9255632 0.9255634,-0.9255632 0.5111418,0 0.9255633,0.4139582 0.9255633,0.9255632 0,0.511606 -0.4144215,0.925564 -0.9255633,0.925564 l 0,0 z"
     inkscape:connector-curvature="0"
     style="fill:#2f3435;fill-opacity:1" />
</svg>
